<svg width="103" height="31" viewBox="0 0 103 31" fill="none" xmlns="http://www.w3.org/2000/svg">
<g filter="url(#filter0_d_220_1763)">
<path d="M13.178 12.23L13.332 12.622L13.808 12.034L13.99 11.628H11.106L11.288 10.326H16.174L15.992 11.656L14.382 13.602H15.88L15.502 16.332H14.102L14.298 14.89H13.822L13.22 19.188C13.1827 19.4587 13.0613 19.6827 12.856 19.86C12.66 20.028 12.436 20.112 12.184 20.112H10.042L11.106 18.81L11.652 14.89H10.532L10.714 13.602H12.058L11.442 12.23H13.178ZM22.838 10.312L22.656 11.67H20.332L20.08 12.272H22.334L21.62 17.326H20.248L19.996 16.99L20.486 13.518H17.952L17.462 16.99L17.126 17.326H15.754L16.468 12.272H18.246L18.498 11.67H16.328L16.51 10.312H22.838ZM19.996 14.008L19.576 16.962L21.508 20.098H19.24L18.54 18.362L17.21 20.098H15.082L17.896 16.948L18.302 14.008H19.996ZM33.7849 18.152L33.5049 20.126H23.1869L23.4669 18.152H33.7849ZM33.0009 10.046L32.8049 10.466H35.5209L35.3809 11.488H35.0309L34.9469 12.132L33.6169 13.196L34.9749 14.414H33.0989L32.6369 13.98L32.0909 14.414H30.1449L31.7269 13.126L30.4669 11.922H32.2309L32.6789 12.342L33.2389 11.88L33.2949 11.488H32.3569L32.2589 11.712H30.5229L31.1389 10.298L30.8869 10.046H33.0009ZM26.3929 11.726L26.2949 11.838H30.1589L29.9069 13.56C29.8696 13.8213 29.7436 14.0407 29.5289 14.218C29.3236 14.3953 29.0856 14.484 28.8149 14.484H27.5829L28.2269 13.966L28.4089 12.678H25.5529L25.3849 12.874H28.0309L27.8489 14.232H24.1669L24.3209 13.056H23.5229L24.5169 11.726H26.3929ZM27.6669 14.946L27.7089 14.652H30.4809L30.4389 14.946H34.9189L34.7929 15.856H23.1029L23.2289 14.946H27.6669ZM33.9389 17.116L33.8269 17.928H23.5089L23.6209 17.116H33.9389ZM29.4729 10.438H30.4389L30.3129 11.334H29.3329L29.3049 11.6H27.6109L27.6389 11.334H26.6309L26.6029 11.6H24.9229L24.9509 11.334H23.7329L23.8589 10.438H25.0909L25.1049 10.34L24.8109 10.046H26.8269L26.7709 10.438H27.7789L27.7929 10.34L27.4989 10.046H29.5289L29.4729 10.438ZM34.0929 16.094L33.9809 16.878H23.6349L23.7469 16.094H34.0929ZM31.0829 19.356L31.1389 18.95H25.8889L25.8329 19.356H31.0829ZM26.5469 13.686L26.5889 13.364H25.6509L25.6089 13.686H26.5469ZM44.8298 18.558L43.7518 20.126H39.2298L38.8798 19.804L38.4318 20.126H35.7718L37.6898 18.726L36.6398 17.76L36.8218 16.43H36.3038L36.4858 15.1H37.0038L37.0738 14.652H38.9358L38.8658 15.1H40.1958L40.2658 14.652H42.1278L42.0578 15.1H42.6038L42.4218 16.43H41.8758L41.6938 17.76L40.3638 18.726L41.7218 19.986L43.9338 16.766L42.7158 14.302H44.8438L45.1798 14.974L45.6418 14.302V14.288L45.8938 12.44H45.3898L44.9138 13.77H42.7858L43.9898 10.368L43.7238 10.046H46.2438L45.8658 11.11H48.6098L48.4278 12.44H48.0218L47.7698 14.288L46.0618 16.766L47.7418 20.126H45.6138L44.8298 18.558ZM37.5778 12.972H36.7798L36.9758 11.642H39.1038L39.2578 10.564L39.0198 10.046H41.1898L40.9658 11.642H43.0938L42.8978 12.972H42.0298L42.6738 14.568H41.0778L40.6858 13.602L40.5458 14.568H38.6838L38.8378 13.504L38.1518 14.568H36.5558L37.5778 12.972ZM41.6798 10.312H43.2758L42.8558 11.376H41.2598L41.6798 10.312ZM38.8658 11.376H37.2698L37.1578 10.312H38.7538L38.8658 11.376ZM39.9298 17.102L40.0138 16.43H38.6838L38.5998 17.102L39.1878 17.648L39.9298 17.102ZM53.5927 17.76L53.6207 17.494H49.6447L50.0507 14.568H60.6907L60.2847 17.494H56.2807L56.2527 17.76H60.5087L60.3967 18.558H56.1407L56.0987 18.824H60.6207L60.4807 19.874H48.7767L48.9167 18.824H53.4387L53.4807 18.558H49.2247L49.3367 17.76H53.5927ZM60.8867 13.238H50.2467L50.6527 10.298H61.2927L60.8867 13.238ZM61.3767 13.504L61.2647 14.302H49.5607L49.6727 13.504H61.3767ZM52.6267 11.376H59.0107L59.0527 11.096H52.6687L52.6267 11.376ZM58.8707 12.44L58.8987 12.174H52.5147L52.4867 12.44H58.8707ZM56.5747 15.366L56.5467 15.632H58.4087L58.4507 15.366H56.5747ZM58.2687 16.696L58.2967 16.43H56.4347L56.3927 16.696H58.2687ZM53.7327 16.696L53.7747 16.43H51.9127L51.8847 16.696H53.7327ZM52.0247 15.632H53.8867L53.9147 15.366H52.0667L52.0247 15.632ZM73.3316 13.238L73.7936 15.632H71.9316L71.8756 15.38L66.6116 15.632L66.7936 14.302L68.1516 12.174H66.8216L67.0176 10.844H69.2576L69.2996 10.578L68.8516 10.046H72.0436L71.9176 10.844H74.1996L74.0036 12.174H70.8116L69.5376 14.162L71.6236 14.064L71.4696 13.238H73.3316ZM62.6496 13.504L64.4556 10.662L64.1616 10.312H67.0876L65.0436 13.504H66.6396L64.5956 16.696H66.1916L66.0096 18.026H62.0196L62.2016 16.696L63.3916 14.834H62.4676L62.6496 13.504ZM72.1556 15.898L71.8196 18.292H72.8836L73.4856 17.76L73.1916 19.888H69.4676L70.0276 15.898H72.1556ZM69.4956 15.898L68.1376 19.888H66.0096L67.3676 15.898H69.4956ZM65.7436 19.888L61.7116 20.126L61.9076 18.824L65.9256 18.558L65.7436 19.888ZM86.5325 14.764H84.1245L83.3825 20.098H80.7645L81.5065 14.764H78.9445L79.1405 13.364H81.7025L82.1085 10.55L81.6465 10.06H84.7965L84.3205 13.364H86.7285L86.5325 14.764ZM75.0105 20.126L75.8785 14.036H74.9265L75.1085 12.706H78.4545L77.6985 18.11L78.9445 17.914L78.7345 19.356L75.0105 20.126ZM78.0065 10.312L78.5245 12.174H76.3965L75.8925 10.312H78.0065ZM90.1574 13.252H92.2854L92.0614 14.848H89.9334L90.1574 13.252ZM89.6674 17.55H91.7954L91.5714 19.146H89.4434L89.6674 17.55Z" fill="#7EC7FC"/>
</g>
<defs>
<filter id="filter0_d_220_1763" x="0.0419922" y="0.0458984" width="102.243" height="30.0801" filterUnits="userSpaceOnUse" color-interpolation-filters="sRGB">
<feFlood flood-opacity="0" result="BackgroundImageFix"/>
<feColorMatrix in="SourceAlpha" type="matrix" values="0 0 0 0 0 0 0 0 0 0 0 0 0 0 0 0 0 0 127 0" result="hardAlpha"/>
<feOffset/>
<feGaussianBlur stdDeviation="5"/>
<feComposite in2="hardAlpha" operator="out"/>
<feColorMatrix type="matrix" values="0 0 0 0 0.305882 0 0 0 0 0.705882 0 0 0 0 1 0 0 0 0.5 0"/>
<feBlend mode="normal" in2="BackgroundImageFix" result="effect1_dropShadow_220_1763"/>
<feBlend mode="normal" in="SourceGraphic" in2="effect1_dropShadow_220_1763" result="shape"/>
</filter>
</defs>
</svg>
